<?xml version="1.0" encoding="UTF-8" standalone="no"?><!DOCTYPE svg PUBLIC "-//W3C//DTD SVG 1.1//EN" "http://www.w3.org/Graphics/SVG/1.1/DTD/svg11.dtd"><svg width="100%" height="100%" viewBox="0 0 500 500" version="1.1" xmlns="http://www.w3.org/2000/svg" xmlns:xlink="http://www.w3.org/1999/xlink" xml:space="preserve" xmlns:serif="http://www.serif.com/" style="fill-rule:evenodd;clip-rule:evenodd;stroke-linejoin:round;stroke-miterlimit:2;"><g><g><g><path d="M423.882,92.329c-32.595,-14.9 -67.204,-25.773 -103.329,-31.837c-4.548,7.841 -9.618,18.453 -13.147,26.792c-38.423,-5.567 -76.585,-5.567 -114.486,0c-3.53,-8.338 -8.836,-18.951 -13.147,-26.792c-36.386,6.064 -70.994,16.937 -103.353,31.837c-65.451,96.531 -83.147,190.763 -74.287,283.764c43.445,31.577 85.397,50.788 126.615,63.414c10.091,-13.645 19.188,-28.308 27.029,-43.705c-14.9,-5.567 -29.066,-12.389 -42.71,-20.467c3.553,-2.535 7.083,-5.306 10.376,-8.101c82.365,37.665 171.576,37.665 252.946,0c3.53,2.795 6.822,5.567 10.352,8.101c-13.645,8.078 -27.787,14.9 -42.687,20.467c7.817,15.398 16.914,30.061 27.029,43.705c41.194,-12.626 83.383,-31.837 126.615,-63.414c10.873,-107.64 -17.198,-201.139 -73.813,-283.764Zm-256.736,226.391c-24.754,0 -44.984,-22.48 -44.984,-50.03c0,-27.526 19.709,-50.03 44.984,-50.03c25.015,0 45.482,22.504 44.984,50.03c0,27.55 -19.969,50.03 -44.984,50.03Zm166.033,0c-24.754,0 -45.008,-22.48 -45.008,-50.03c0,-27.526 19.733,-50.03 45.008,-50.03c25.015,0 45.482,22.504 44.984,50.03c0,27.55 -19.709,50.03 -44.984,50.03Z" style="fill:#314158;fill-rule:nonzero;"/></g></g></g></svg>