<?xml version="1.0" encoding="UTF-8" standalone="no"?><!DOCTYPE svg PUBLIC "-//W3C//DTD SVG 1.1//EN" "http://www.w3.org/Graphics/SVG/1.1/DTD/svg11.dtd"><svg width="100%" height="100%" viewBox="0 0 2084 2084" version="1.1" xmlns="http://www.w3.org/2000/svg" xmlns:xlink="http://www.w3.org/1999/xlink" xml:space="preserve" xmlns:serif="http://www.serif.com/" style="fill-rule:evenodd;clip-rule:evenodd;stroke-linejoin:round;stroke-miterlimit:2;"><g><g><g><path d="M1766.174,384.706c-135.814,-62.084 -280.018,-107.388 -430.538,-132.656c-18.951,32.67 -40.073,76.889 -54.78,111.632c-160.095,-23.195 -319.104,-23.195 -477.027,0c-14.707,-34.743 -36.816,-78.962 -54.78,-111.632c-151.606,25.268 -295.81,70.572 -430.637,132.656c-272.714,402.211 -346.444,794.848 -309.53,1182.352c181.02,131.57 355.821,211.617 527.562,264.225c42.047,-56.852 79.949,-117.949 112.619,-182.105c-62.084,-23.195 -121.107,-51.621 -177.96,-85.279c14.805,-10.561 29.512,-22.109 43.231,-33.756c343.187,156.936 714.899,156.936 1053.94,0c14.707,11.647 28.426,23.195 43.133,33.756c-56.852,33.657 -115.777,62.084 -177.861,85.279c32.572,64.156 70.473,125.253 112.619,182.105c171.643,-52.608 347.431,-132.656 527.562,-264.225c45.304,-448.502 -71.658,-838.079 -307.556,-1182.352Zm-1069.733,943.295c-103.144,0 -187.435,-93.668 -187.435,-208.459c0,-114.692 82.12,-208.459 187.435,-208.459c104.229,0 189.508,93.767 187.435,208.459c0,114.79 -83.206,208.459 -187.435,208.459Zm691.803,0c-103.144,0 -187.534,-93.668 -187.534,-208.459c0,-114.692 82.219,-208.459 187.534,-208.459c104.229,0 189.508,93.767 187.435,208.459c0,114.79 -82.12,208.459 -187.435,208.459Z" style="fill:#fef8ec;fill-rule:nonzero;"/></g></g></g></svg>