<?xml version="1.0" encoding="UTF-8" standalone="no"?><!DOCTYPE svg PUBLIC "-//W3C//DTD SVG 1.1//EN" "http://www.w3.org/Graphics/SVG/1.1/DTD/svg11.dtd"><svg width="100%" height="100%" viewBox="0 0 500 500" version="1.1" xmlns="http://www.w3.org/2000/svg" xmlns:xlink="http://www.w3.org/1999/xlink" xml:space="preserve" xmlns:serif="http://www.serif.com/" style="fill-rule:evenodd;clip-rule:evenodd;stroke-linejoin:round;stroke-miterlimit:2;"><g><g><g><path d="M250,0c-138.125,0 -250,114.705 -250,256.323c0,113.423 71.55,209.237 170.95,243.2c12.5,2.23 17.175,-5.46 17.175,-12.201c0,-6.075 -0.325,-26.248 -0.325,-47.727c-62.8,11.868 -79.05,-15.687 -84.05,-30.118c-2.825,-7.356 -15,-30.118 -25.625,-36.219c-8.75,-4.793 -21.25,-16.661 -0.325,-16.969c19.7,-0.333 33.775,18.583 38.45,26.273c22.5,38.782 58.45,27.862 72.8,21.147c2.2,-16.661 8.75,-27.862 15.95,-34.27c-55.625,-6.408 -113.75,-28.529 -113.75,-126.573c0,-27.888 9.675,-50.931 25.625,-68.9c-2.5,-6.408 -11.25,-32.656 2.5,-67.9c0,0 20.925,-6.741 68.75,26.248c20,-5.742 41.25,-8.638 62.5,-8.638c21.25,0 42.5,2.896 62.5,8.638c47.825,-33.322 68.75,-26.248 68.75,-26.248c13.75,35.244 5,61.492 2.5,67.9c15.925,17.968 25.625,40.704 25.625,68.9c0,98.351 -58.45,120.164 -114.05,126.573c9.05,7.997 16.85,23.377 16.85,47.394c0,34.296 -0.3,61.851 -0.3,70.489c0,6.741 4.7,14.739 17.2,12.201c49.625,-17.199 92.75,-49.906 123.3,-93.507c30.55,-43.626 47,-95.993 47,-149.693c0,-141.619 -111.875,-256.323 -250,-256.323Z" style="fill:#003049;"/></g></g></g></svg>