<?xml version="1.0" encoding="UTF-8" standalone="no"?><!DOCTYPE svg PUBLIC "-//W3C//DTD SVG 1.1//EN" "http://www.w3.org/Graphics/SVG/1.1/DTD/svg11.dtd"><svg width="100%" height="100%" viewBox="0 0 2084 2084" version="1.1" xmlns="http://www.w3.org/2000/svg" xmlns:xlink="http://www.w3.org/1999/xlink" xml:space="preserve" xmlns:serif="http://www.serif.com/" style="fill-rule:evenodd;clip-rule:evenodd;stroke-linejoin:round;stroke-miterlimit:2;"><g><g><g><path d="M1041.667,0c-575.521,0 -1041.667,477.936 -1041.667,1068.014c0,472.596 298.125,871.82 712.292,1013.332c52.083,9.292 71.563,-22.749 71.563,-50.837c0,-25.312 -1.354,-109.365 -1.354,-198.864c-261.667,49.449 -329.375,-65.362 -350.208,-125.492c-11.771,-30.652 -62.5,-125.492 -106.771,-150.91c-36.458,-19.972 -88.542,-69.421 -1.354,-70.703c82.083,-1.388 140.729,77.431 160.208,109.471c93.75,161.591 243.542,116.093 303.333,88.111c9.167,-69.421 36.458,-116.093 66.458,-142.794c-231.771,-26.7 -473.958,-118.87 -473.958,-527.386c0,-116.2 40.313,-212.214 106.771,-287.082c-10.417,-26.7 -46.875,-136.065 10.417,-282.917c0,0 87.188,-28.089 286.458,109.365c83.333,-23.924 171.875,-35.992 260.417,-35.992c88.542,0 177.083,12.069 260.417,35.992c199.271,-138.842 286.458,-109.365 286.458,-109.365c57.292,146.852 20.833,256.217 10.417,282.917c66.354,74.868 106.771,169.601 106.771,287.082c0,409.797 -243.542,500.685 -475.208,527.386c37.708,33.322 70.208,97.403 70.208,197.476c0,142.9 -1.25,257.712 -1.25,293.704c0,28.089 19.583,61.411 71.667,50.837c206.771,-71.664 386.458,-207.942 513.75,-389.612c127.292,-181.776 195.833,-399.971 195.833,-623.72c0,-590.078 -466.146,-1068.014 -1041.667,-1068.014Z" style="fill:#fef8ec;"/></g></g></g></svg>