<?xml version="1.0" encoding="UTF-8" standalone="no"?><!DOCTYPE svg PUBLIC "-//W3C//DTD SVG 1.1//EN" "http://www.w3.org/Graphics/SVG/1.1/DTD/svg11.dtd"><svg width="100%" height="100%" viewBox="0 0 2084 2084" version="1.1" xmlns="http://www.w3.org/2000/svg" xmlns:xlink="http://www.w3.org/1999/xlink" xml:space="preserve" xmlns:serif="http://www.serif.com/" style="fill-rule:evenodd;clip-rule:evenodd;stroke-linejoin:round;stroke-miterlimit:2;"><g><g><g><g><clipPath id="_clip1"><rect x="-0.001" y="-0.001" width="2083.336" height="2083.16"/></clipPath><g clip-path="url(#_clip1)"><g id="path4642"><g id="Camada-1" serif:id="Camada 1"><path id="path46421" serif:id="path4642" d="M1041.666,-0.001c-282.875,0 -318.334,1.799 -429.424,6.369c-110.868,5.07 -186.431,22.419 -252.681,48.178c-68.493,26.613 -126.82,62.387 -184.722,120.302c-57.903,57.908 -93.347,115.92 -119.958,184.419c-25.757,66.256 -43.438,142.137 -48.493,253.015c-5.083,111.1 -6.389,146.568 -6.389,429.461c0,282.907 1.306,318.361 6.389,429.461c5.063,110.871 22.736,186.447 48.493,252.703c26.611,68.499 62.056,126.511 119.958,184.419c57.903,57.915 116.229,93.661 184.722,120.288c66.25,25.745 141.813,43.434 252.681,48.497c111.09,5.07 146.549,6.049 429.424,6.049c282.875,0 318.334,-1.632 429.424,-6.049c110.868,-5.063 186.75,-22.752 253,-48.497c68.493,-26.627 126.5,-62.374 184.403,-120.288c57.91,-57.908 93.347,-115.92 119.958,-184.419c25.757,-66.256 43.438,-141.832 48.493,-252.703c5.083,-111.1 6.389,-146.554 6.389,-429.461c0,-282.893 -1.306,-318.361 -6.389,-429.461c-5.063,-110.878 -22.736,-186.759 -48.493,-253.015c-26.611,-68.499 -62.049,-126.511 -119.958,-184.419c-57.903,-57.915 -115.91,-93.689 -184.403,-120.302c-66.25,-25.759 -142.132,-43.108 -253,-48.178c-111.09,-5.063 -146.549,-6.369 -429.424,-6.369Zm0,187.607c278.111,0 310.98,1.632 420.813,6.042c101.549,4.577 156.952,21.794 193.66,36.052c48.618,18.904 83.195,41.413 119.639,77.861c36.451,36.448 58.951,71.027 77.84,119.649c14.264,36.705 31.417,92.119 36.056,193.663c5,109.843 6.056,142.728 6.056,420.856c0,278.135 -1.139,311.02 -6.056,420.849c-4.639,101.564 -21.792,156.646 -36.056,193.357c-18.889,48.615 -41.389,83.493 -77.84,119.955c-36.444,36.448 -71.021,58.957 -119.639,77.861c-36.708,14.21 -92.111,31.121 -193.66,35.739c-109.82,5.063 -142.681,6.049 -420.813,6.049c-278.132,0 -310.993,-1.632 -420.813,-6.049c-101.549,-4.57 -156.632,-21.481 -193.334,-35.739c-48.625,-18.904 -83.514,-41.413 -119.958,-77.861c-36.444,-36.462 -58.951,-71.34 -77.847,-119.955c-14.264,-36.712 -31.097,-91.793 -35.736,-193.357c-4.993,-109.829 -6.056,-142.714 -6.056,-420.849c0,-278.128 1.139,-311.013 6.056,-420.856c4.646,-101.544 21.472,-156.958 35.736,-193.663c18.896,-48.622 41.403,-83.202 77.847,-119.649c36.444,-36.448 71.333,-58.957 119.958,-77.861c36.701,-14.21 91.785,-31.412 193.334,-36.052c109.833,-5.063 142.702,-6.042 420.813,-6.042Zm556.084,172.932c-69.021,0 -125.063,56.033 -125.063,125.073c0,69.034 56.042,125.066 125.063,125.066c69.035,0 125.063,-56.033 125.063,-125.066c0,-69.041 -56.028,-125.073 -125.063,-125.073Zm-556.084,146.131c-295.389,0 -534.709,239.667 -534.709,535.075c0,295.422 239.32,534.748 534.709,534.748c295.389,0 535.028,-239.326 535.028,-534.748c0,-295.408 -239.639,-535.075 -535.028,-535.075Zm0,187.933c191.75,0 347.111,155.389 347.111,347.141c0,191.767 -155.361,347.141 -347.111,347.141c-191.75,0 -347.111,-155.375 -347.111,-347.141c0,-191.753 155.361,-347.141 347.111,-347.141Z" style="fill:#fef8ec;fill-rule:nonzero;"/></g></g></g></g></g></g></g></svg>