<?xml version="1.0" encoding="UTF-8" standalone="no"?><!DOCTYPE svg PUBLIC "-//W3C//DTD SVG 1.1//EN" "http://www.w3.org/Graphics/SVG/1.1/DTD/svg11.dtd"><svg width="100%" height="100%" viewBox="0 0 500 500" version="1.1" xmlns="http://www.w3.org/2000/svg" xmlns:xlink="http://www.w3.org/1999/xlink" xml:space="preserve" xmlns:serif="http://www.serif.com/" style="fill-rule:evenodd;clip-rule:evenodd;stroke-linejoin:round;stroke-miterlimit:2;"><g><g><g><g><clipPath id="_clip1"><rect x="0" y="0" width="500" height="499.958"/></clipPath><g clip-path="url(#_clip1)"><g id="path4642"><g id="Camada-1" serif:id="Camada 1"><path id="path46421" serif:id="path4642" d="M250,0c-67.89,0 -76.4,0.432 -103.062,1.528c-26.608,1.217 -44.743,5.38 -60.643,11.563c-16.438,6.387 -30.437,14.973 -44.333,28.873c-13.897,13.898 -22.403,27.821 -28.79,44.261c-6.182,15.901 -10.425,34.113 -11.638,60.724c-1.22,26.664 -1.533,35.176 -1.533,103.071c0,67.898 0.313,76.407 1.533,103.071c1.215,26.609 5.457,44.747 11.638,60.649c6.387,16.44 14.893,30.363 28.79,44.261c13.897,13.9 27.895,22.479 44.333,28.869c15.9,6.179 34.035,10.424 60.643,11.639c26.662,1.217 35.172,1.452 103.062,1.452c67.89,0 76.4,-0.392 103.062,-1.452c26.608,-1.215 44.82,-5.46 60.72,-11.639c16.438,-6.391 30.36,-14.97 44.257,-28.869c13.898,-13.898 22.403,-27.821 28.79,-44.261c6.182,-15.901 10.425,-34.04 11.638,-60.649c1.22,-26.664 1.533,-35.173 1.533,-103.071c0,-67.894 -0.313,-76.407 -1.533,-103.071c-1.215,-26.611 -5.457,-44.822 -11.638,-60.724c-6.387,-16.44 -14.892,-30.363 -28.79,-44.261c-13.897,-13.9 -27.818,-22.485 -44.257,-28.873c-15.9,-6.182 -34.112,-10.346 -60.72,-11.563c-26.662,-1.215 -35.172,-1.528 -103.062,-1.528Zm0,45.026c66.747,0 74.635,0.392 100.995,1.45c24.372,1.098 37.668,5.23 46.478,8.652c11.668,4.537 19.967,9.939 28.713,18.687c8.748,8.747 14.148,17.046 18.682,28.716c3.423,8.809 7.54,22.109 8.653,46.479c1.2,26.362 1.453,34.255 1.453,101.005c0,66.752 -0.273,74.645 -1.453,101.004c-1.113,24.375 -5.23,37.595 -8.653,46.406c-4.533,11.668 -9.933,20.038 -18.682,28.789c-8.747,8.747 -17.045,14.15 -28.713,18.687c-8.81,3.41 -22.107,7.469 -46.478,8.577c-26.357,1.215 -34.243,1.452 -100.995,1.452c-66.752,0 -74.638,-0.392 -100.995,-1.452c-24.372,-1.097 -37.592,-5.155 -46.4,-8.577c-11.67,-4.537 -20.043,-9.939 -28.79,-18.687c-8.747,-8.751 -14.148,-17.121 -18.683,-28.789c-3.423,-8.811 -7.463,-22.03 -8.577,-46.406c-1.198,-26.359 -1.453,-34.251 -1.453,-101.004c0,-66.751 0.273,-74.643 1.453,-101.005c1.115,-24.37 5.153,-37.67 8.577,-46.479c4.535,-11.669 9.937,-19.968 18.683,-28.716c8.747,-8.747 17.12,-14.15 28.79,-18.687c8.808,-3.41 22.028,-7.539 46.4,-8.652c26.36,-1.215 34.248,-1.45 100.995,-1.45Zm133.46,41.504c-16.565,0 -30.015,13.448 -30.015,30.018c0,16.568 13.45,30.016 30.015,30.016c16.568,0 30.015,-13.448 30.015,-30.016c0,-16.57 -13.447,-30.018 -30.015,-30.018Zm-133.46,35.071c-70.893,0 -128.33,57.52 -128.33,128.418c0,70.901 57.437,128.34 128.33,128.34c70.893,0 128.407,-57.438 128.407,-128.34c0,-70.898 -57.513,-128.418 -128.407,-128.418Zm0,45.104c46.02,0 83.307,37.293 83.307,83.314c0,46.024 -37.287,83.314 -83.307,83.314c-46.02,0 -83.307,-37.29 -83.307,-83.314c0,-46.021 37.287,-83.314 83.307,-83.314Z" style="fill:#003049;fill-rule:nonzero;"/></g></g></g></g></g></g></g></svg>