<?xml version="1.0" encoding="UTF-8" standalone="no"?><!DOCTYPE svg PUBLIC "-//W3C//DTD SVG 1.1//EN" "http://www.w3.org/Graphics/SVG/1.1/DTD/svg11.dtd"><svg width="100%" height="100%" viewBox="0 0 2084 2084" version="1.1" xmlns="http://www.w3.org/2000/svg" xmlns:xlink="http://www.w3.org/1999/xlink" xml:space="preserve" xmlns:serif="http://www.serif.com/" style="fill-rule:evenodd;clip-rule:evenodd;stroke-linejoin:round;stroke-miterlimit:2;"><g><g><g><g><clipPath id="_clip1"><rect x="0" y="0" width="2083.333" height="2083.333"/></clipPath><g clip-path="url(#_clip1)"><g><path d="M1855.587,356.027c89.678,24.053 160.227,94.508 184.186,184.186c43.371,162.405 43.561,501.42 43.561,501.42c0,0 0,339.11 -43.561,501.515c-23.958,89.678 -94.508,160.133 -184.186,184.186c-162.405,43.561 -813.92,43.561 -813.92,43.561c0,0 -651.515,0 -813.92,-43.561c-89.678,-24.053 -160.133,-94.508 -184.186,-184.186c-43.561,-162.405 -43.561,-501.515 -43.561,-501.515c0,0 0,-339.015 43.561,-501.42c24.053,-89.678 94.508,-160.133 184.186,-184.186c162.405,-43.561 813.92,-43.561 813.92,-43.561c0,0 651.515,0 813.92,43.561Zm-481.25,685.701l-541.193,312.405l0,-624.905l541.193,312.5Z" style="fill:#fef8ec;"/></g></g></g></g></g></g></svg>