<?xml version="1.0" encoding="UTF-8" standalone="no"?><!DOCTYPE svg PUBLIC "-//W3C//DTD SVG 1.1//EN" "http://www.w3.org/Graphics/SVG/1.1/DTD/svg11.dtd"><svg width="100%" height="100%" viewBox="0 0 500 500" version="1.1" xmlns="http://www.w3.org/2000/svg" xmlns:xlink="http://www.w3.org/1999/xlink" xml:space="preserve" xmlns:serif="http://www.serif.com/" style="fill-rule:evenodd;clip-rule:evenodd;stroke-linejoin:round;stroke-miterlimit:2;"><g><g><g><g><clipPath id="_clip1"><rect x="-0" y="-0" width="500" height="500"/></clipPath><g clip-path="url(#_clip1)"><g><path d="M445.341,85.447c21.523,5.773 38.455,22.682 44.205,44.205c10.409,38.977 10.455,120.341 10.455,120.341c0,0 0,81.386 -10.455,120.364c-5.75,21.523 -22.682,38.432 -44.205,44.205c-38.977,10.455 -195.341,10.455 -195.341,10.455c0,0 -156.364,0 -195.341,-10.455c-21.523,-5.773 -38.432,-22.682 -44.205,-44.205c-10.455,-38.977 -10.455,-120.364 -10.455,-120.364c0,0 0,-81.364 10.455,-120.341c5.773,-21.523 22.682,-38.432 44.205,-44.205c38.977,-10.455 195.341,-10.455 195.341,-10.455c-0,0 156.364,0 195.341,10.455Zm-115.5,164.568l-129.886,74.977l0,-149.977l129.886,75Z" style="fill:#003049;"/></g></g></g></g></g></g></svg>